# xmcd CD database file generated by LOLA_Freedb v0.9beta0
# 
# Track frame offsets:
#      150
#      15275
#      26993
#      46055
#      65009
#      78646
#      94370
#      110211
#      124564
#      142998
# 
# Disc length: 2123 seconds
# 
# Revision: 0 
# Processed by: cddbd v1.5.1PL2 Copyright (c) Steve Scherf et al.
# Submitted via: LOLA_Freedb v0.9beta0
# 
DISCID=8508490a
DTITLE=THE BLUES BROTHERS BAND - THE BEST OF THE BLUES BROTHERS
DYEAR=1981
DGENRE=
TTITLE0=Huff Gamble - Expressway To Your Heart
TTITLE1=Jerry Wexler, Bert Berns, Solomon Berke - Everybody Needs Somebody To Love
TTITLE2=Willie Mabon - I Don't Know
TTITLE3=Taj Mahal, Yank Rachel - She Caught The Katy
TTITLE4=David Porter, Isaac Hays - Soul Man
TTITLE5=Charles Johnson - Rubber Biscuit
TTITLE6=Wayne Cochran - Going Back To Miami
TTITLE7=Steeve Winwood, Muff Winwood, Spencer  Davis - Gimme Some Lovin'
TTITLE8=Delbert McClinton - "B"  Movie Box Car Blues
TTITLE9=Charles Calhoun, Lou Willie Turner - Flip Flop and Fly
EXTD=
EXTT0=
EXTT1=
EXTT2=
EXTT3=
EXTT4=
EXTT5=
EXTT6=
EXTT7=
EXTT8=
EXTT9=
PLAYORDER=
